<?xml version="1.0" encoding="UTF-8" standalone="no"?>
<!DOCTYPE svg PUBLIC "-//W3C//DTD SVG 1.1//EN" "http://www.w3.org/Graphics/SVG/1.1/DTD/svg11.dtd">
<svg width="100%" height="100%" viewBox="0 0 300 300" version="1.1" xmlns="http://www.w3.org/2000/svg" xmlns:xlink="http://www.w3.org/1999/xlink" xml:space="preserve" xmlns:serif="http://www.serif.com/" style="fill-rule:evenodd;clip-rule:evenodd;stroke-linejoin:round;stroke-miterlimit:2;">
    <g transform="matrix(0.292969,0,0,0.292969,0,0)">
        <g transform="matrix(0.370224,0,0,0.370224,82.005379,19.694856)">
            <path d="M241.11,1975.73C206.7,1941.32 178.5,1912.35 178.5,1911.05C178.5,1910.02 250.94,1909.24 339.67,1909.24L500.84,1909.24L512.74,1901.74C526.45,1892.94 535.76,1878.72 542.49,1856.21C546.89,1841.46 547.15,1811.71 547.92,1337.51C548.7,869.77 547.66,769.65 541.97,754.65C540.16,750.51 530.85,750.25 398.65,749.99C321.04,749.73 239.55,748.96 217.81,747.92L178.23,746.37L241.35,683.5L304.22,620.89L2019.18,620.89L2082.05,683.24C2116.46,717.39 2144.66,746.36 2144.66,747.92C2144.66,749.21 1897.6,750.25 1496.6,750.25L848.54,750.25L846.73,757.49C845.44,761.37 844.66,1008.43 844.66,1306.46C844.66,1825.94 844.92,1848.97 849.32,1862.68C855.79,1881.57 864.32,1892.17 880.36,1901.49L893.81,1909.25L1503.84,1909.25C1839.12,1909.25 2113.61,1910.03 2113.61,1911.32C2113.61,1912.35 2085.41,1941.33 2050.74,1976L1988.13,2038.61L303.95,2038.61L241.08,1975.74L241.11,1975.73Z" style="fill:rgb(15,23,42);fill-rule:nonzero;"/>
        </g>
        <g transform="matrix(0.370224,0,0,0.370224,82.005379,19.694856)">
            <path d="M1641.74,1784.55C1642.77,1782.74 1647.69,1774.98 1652.61,1767.48C1672.79,1735.4 1682.88,1693.23 1680.81,1648.22C1679,1601.39 1668.91,1568.28 1647.44,1536.46C1607.6,1477.22 1556.38,1438.15 1368.56,1324.06C1295.61,1279.56 1241.28,1236.62 1212.82,1200.92C1181,1160.82 1170.13,1124.6 1172.72,1065.88C1175.31,1006.9 1190.31,959.03 1219.29,917.9C1229.9,902.38 1235.85,898.5 1233,908.85C1221.62,947.66 1221.1,997.59 1231.45,1030.96C1254.47,1104.69 1313.98,1158.5 1487.57,1262.5C1523.79,1284.49 1564.15,1309.07 1576.82,1317.6C1659.09,1372.7 1723.25,1435.57 1746.27,1483.43C1772.92,1539.31 1772.66,1607.09 1745.49,1673.32C1732.04,1706.43 1696.59,1750.41 1662.96,1776.28C1648.99,1787.15 1637.61,1791.54 1641.75,1784.56L1641.74,1784.55Z" style="fill:rgb(15,23,42);fill-rule:nonzero;"/>
        </g>
        <g transform="matrix(0.370224,0,0,0.370224,82.005379,19.694856)">
            <path d="M1226.26,1773.17C1197.28,1765.41 1191.33,1764.37 1169.34,1765.67C1155.89,1766.19 1141.92,1766.96 1138.3,1767.48L1131.83,1768.26L1130.54,1703.58C1129.76,1668.14 1129.51,1637.87 1130.02,1636.83C1130.54,1635.8 1138.82,1646.92 1148.65,1661.41C1176.07,1702.8 1215.14,1743.68 1248.77,1766.44C1276.45,1785.33 1274.38,1785.84 1226.26,1773.17Z" style="fill:rgb(15,23,42);fill-rule:nonzero;"/>
        </g>
        <g transform="matrix(0.370224,0,0,0.370224,82.005379,19.694856)">
            <path d="M1720.91,1000.15C1708.23,972.99 1692.45,947.63 1674.6,925.64C1661.41,909.08 1659.08,905.2 1663.99,906.75C1674.86,910.11 1716.25,911.15 1726.86,908.3C1732.29,906.75 1737.21,905.97 1737.73,906.49C1739.28,907.78 1731.52,1014.11 1729.97,1015.66C1729.45,1016.44 1725.31,1009.45 1720.92,1000.14L1720.91,1000.15Z" style="fill:rgb(15,23,42);fill-rule:nonzero;"/>
        </g>
    </g>
</svg>
